<svg xmlns="http://www.w3.org/2000/svg" width="720" height="320" viewBox="0 0 720 320">
  <defs>
    <linearGradient id="bg" x1="0" x2="1" y1="0" y2="1">
      <stop offset="0%" stop-color="#0ea5e9"/>
      <stop offset="100%" stop-color="#22c55e"/>
    </linearGradient>
  </defs>
  <rect width="100%" height="100%" fill="#0b1220"/>
  <g transform="translate(24,24)">
    <rect x="0" y="0" width="672" height="272" rx="14" fill="#111827" stroke="#1f2937"/>
    <g transform="translate(20,20)">
      <rect x="0" y="0" width="360" height="48" rx="8" fill="#0f172a" stroke="#1f2937"/>
      <text x="12" y="30" fill="#e5e7eb" font-size="16" font-family="Segoe UI, Inter">Input: 1.23 XB</text>
      <rect x="0" y="64" width="360" height="48" rx="8" fill="#0f172a" stroke="#1f2937"/>
      <text x="12" y="94" fill="#93c5fd" font-size="16" font-family="Segoe UI, Inter">Standard: SI</text>
      <rect x="0" y="128" width="360" height="96" rx="8" fill="#0f172a" stroke="#1f2937"/>
      <text x="12" y="156" fill="#fca5a5" font-size="16" font-family="Segoe UI, Inter" font-weight="600">FormatException</text>
      <text x="12" y="178" fill="#fecaca" font-size="14" font-family="Segoe UI, Inter">Unknown SI unit: XB</text>
    </g>
    <g transform="translate(420,20)">
      <rect x="0" y="0" width="232" height="204" rx="12" fill="#0f172a" stroke="#1f2937"/>
      <text x="16" y="36" fill="#86efac" font-size="14" font-family="Segoe UI, Inter">Tips</text>
      <circle cx="24" cy="64" r="6" fill="url(#bg)"/>
      <text x="40" y="68" fill="#e5e7eb" font-size="13" font-family="Segoe UI, Inter">Use IEC: 1.23 GiB</text>
      <circle cx="24" cy="96" r="6" fill="url(#bg)"/>
      <text x="40" y="100" fill="#e5e7eb" font-size="13" font-family="Segoe UI, Inter">Use full words: gigabytes</text>
      <circle cx="24" cy="128" r="6" fill="url(#bg)"/>
      <text x="40" y="132" fill="#e5e7eb" font-size="13" font-family="Segoe UI, Inter">Match standard to input</text>
    </g>
  </g>
</svg>